<mxfile host="app.diagrams.net" modified="2022-05-30T07:56:19.780Z" agent="5.0 (Macintosh; Intel Mac OS X 10_15_7) AppleWebKit/537.36 (KHTML, like Gecko) Chrome/102.0.5005.61 Safari/537.36" etag="HVJVesZ2cJxivgS4OB_E" version="18.1.3" type="github">
  <diagram id="tc-Ip-cfpqVF2_YarSge" name="Page-1">
    <mxGraphModel dx="860" dy="558" grid="1" gridSize="10" guides="1" tooltips="1" connect="1" arrows="1" fold="1" page="1" pageScale="1" pageWidth="827" pageHeight="1169" math="0" shadow="0">
      <root>
        <mxCell id="0" />
        <mxCell id="1" parent="0" />
        <mxCell id="k69NTfBFuRdZiurS4K1d-1" value="&lt;font style=&quot;font-size: 18px;&quot;&gt;Coches&lt;/font&gt;" style="rounded=0;whiteSpace=wrap;html=1;" vertex="1" parent="1">
          <mxGeometry x="60" y="200" width="110" height="50" as="geometry" />
        </mxCell>
        <mxCell id="k69NTfBFuRdZiurS4K1d-2" value="&lt;font style=&quot;font-size: 12px;&quot;&gt;Matricula&lt;/font&gt;" style="ellipse;whiteSpace=wrap;html=1;fontSize=18;" vertex="1" parent="1">
          <mxGeometry y="80" width="60" height="30" as="geometry" />
        </mxCell>
        <mxCell id="k69NTfBFuRdZiurS4K1d-3" value="" style="endArrow=none;html=1;rounded=0;fontSize=12;" edge="1" parent="1" target="k69NTfBFuRdZiurS4K1d-2">
          <mxGeometry width="50" height="50" relative="1" as="geometry">
            <mxPoint x="70" y="200" as="sourcePoint" />
            <mxPoint x="100" y="160" as="targetPoint" />
          </mxGeometry>
        </mxCell>
        <mxCell id="k69NTfBFuRdZiurS4K1d-4" value="Marca" style="ellipse;whiteSpace=wrap;html=1;fontSize=12;" vertex="1" parent="1">
          <mxGeometry x="50" y="110" width="60" height="30" as="geometry" />
        </mxCell>
        <mxCell id="k69NTfBFuRdZiurS4K1d-5" value="" style="endArrow=none;html=1;rounded=0;fontSize=12;exitX=0.25;exitY=0;exitDx=0;exitDy=0;entryX=0.358;entryY=0.992;entryDx=0;entryDy=0;entryPerimeter=0;" edge="1" parent="1" source="k69NTfBFuRdZiurS4K1d-1" target="k69NTfBFuRdZiurS4K1d-4">
          <mxGeometry width="50" height="50" relative="1" as="geometry">
            <mxPoint x="190" y="230" as="sourcePoint" />
            <mxPoint x="240" y="180" as="targetPoint" />
          </mxGeometry>
        </mxCell>
        <mxCell id="k69NTfBFuRdZiurS4K1d-6" value="Modelo" style="ellipse;whiteSpace=wrap;html=1;fontSize=12;" vertex="1" parent="1">
          <mxGeometry x="90" y="70" width="60" height="40" as="geometry" />
        </mxCell>
        <mxCell id="k69NTfBFuRdZiurS4K1d-7" value="" style="endArrow=none;html=1;rounded=0;fontSize=12;exitX=0.5;exitY=0;exitDx=0;exitDy=0;entryX=0.5;entryY=1;entryDx=0;entryDy=0;" edge="1" parent="1" source="k69NTfBFuRdZiurS4K1d-1" target="k69NTfBFuRdZiurS4K1d-6">
          <mxGeometry width="50" height="50" relative="1" as="geometry">
            <mxPoint x="190" y="230" as="sourcePoint" />
            <mxPoint x="240" y="180" as="targetPoint" />
          </mxGeometry>
        </mxCell>
        <mxCell id="k69NTfBFuRdZiurS4K1d-8" value="Color" style="ellipse;whiteSpace=wrap;html=1;fontSize=12;" vertex="1" parent="1">
          <mxGeometry x="130" y="110" width="50" height="30" as="geometry" />
        </mxCell>
        <mxCell id="k69NTfBFuRdZiurS4K1d-9" value="" style="endArrow=none;html=1;rounded=0;fontSize=12;exitX=0.75;exitY=0;exitDx=0;exitDy=0;entryX=0.5;entryY=1;entryDx=0;entryDy=0;" edge="1" parent="1" source="k69NTfBFuRdZiurS4K1d-1" target="k69NTfBFuRdZiurS4K1d-8">
          <mxGeometry width="50" height="50" relative="1" as="geometry">
            <mxPoint x="190" y="250" as="sourcePoint" />
            <mxPoint x="240" y="200" as="targetPoint" />
          </mxGeometry>
        </mxCell>
        <mxCell id="k69NTfBFuRdZiurS4K1d-10" value="Precio" style="ellipse;whiteSpace=wrap;html=1;fontSize=12;" vertex="1" parent="1">
          <mxGeometry x="180" y="70" width="60" height="40" as="geometry" />
        </mxCell>
        <mxCell id="k69NTfBFuRdZiurS4K1d-11" value="" style="endArrow=none;html=1;rounded=0;fontSize=12;exitX=1;exitY=0;exitDx=0;exitDy=0;entryX=0.5;entryY=1;entryDx=0;entryDy=0;" edge="1" parent="1" source="k69NTfBFuRdZiurS4K1d-1" target="k69NTfBFuRdZiurS4K1d-10">
          <mxGeometry width="50" height="50" relative="1" as="geometry">
            <mxPoint x="190" y="250" as="sourcePoint" />
            <mxPoint x="240" y="200" as="targetPoint" />
          </mxGeometry>
        </mxCell>
        <mxCell id="k69NTfBFuRdZiurS4K1d-12" value="Compra" style="rhombus;whiteSpace=wrap;html=1;fontSize=12;" vertex="1" parent="1">
          <mxGeometry x="310" y="197.5" width="80" height="55" as="geometry" />
        </mxCell>
        <mxCell id="k69NTfBFuRdZiurS4K1d-13" value="" style="endArrow=none;html=1;rounded=0;fontSize=12;exitX=1;exitY=0.5;exitDx=0;exitDy=0;entryX=0;entryY=0.5;entryDx=0;entryDy=0;" edge="1" parent="1" source="k69NTfBFuRdZiurS4K1d-1" target="k69NTfBFuRdZiurS4K1d-12">
          <mxGeometry width="50" height="50" relative="1" as="geometry">
            <mxPoint x="370" y="350" as="sourcePoint" />
            <mxPoint x="420" y="300" as="targetPoint" />
          </mxGeometry>
        </mxCell>
        <mxCell id="k69NTfBFuRdZiurS4K1d-14" value="&lt;font style=&quot;font-size: 18px;&quot;&gt;Clientes&lt;/font&gt;" style="rounded=0;whiteSpace=wrap;html=1;fontSize=12;" vertex="1" parent="1">
          <mxGeometry x="550" y="200" width="110" height="50" as="geometry" />
        </mxCell>
        <mxCell id="k69NTfBFuRdZiurS4K1d-15" value="" style="endArrow=none;html=1;rounded=0;fontSize=12;entryX=0;entryY=0.5;entryDx=0;entryDy=0;exitX=1;exitY=0.5;exitDx=0;exitDy=0;" edge="1" parent="1" source="k69NTfBFuRdZiurS4K1d-12" target="k69NTfBFuRdZiurS4K1d-14">
          <mxGeometry width="50" height="50" relative="1" as="geometry">
            <mxPoint x="370" y="350" as="sourcePoint" />
            <mxPoint x="420" y="300" as="targetPoint" />
          </mxGeometry>
        </mxCell>
      </root>
    </mxGraphModel>
  </diagram>
</mxfile>
